<svg width="50" height="50" viewBox="0 0 62 62" fill="none" xmlns="http://www.w3.org/2000/svg">
<g id="Group">
<path id="Vector" opacity="0.4" d="M51.4946 0H10.5054C4.70341 0 0 4.70341 0 10.5054V51.4946C0 57.2966 4.70341 62 10.5054 62H51.4946C57.2966 62 62 57.2966 62 51.4946V10.5054C62 4.70341 57.2966 0 51.4946 0Z" fill="white"/>
<g id="Group_2">
<path id="Vector_2" d="M54.039 26.6035C53.7749 26.2594 53.3669 26.0594 52.9348 26.0594H41.0533C40.5972 26.0594 40.1732 26.2834 39.9172 26.6515L38.805 28.2357V18.2744C38.805 15.346 37.9329 12.5217 36.2767 10.1054C36.0207 9.7293 35.5886 9.49731 35.1325 9.49731H12.2656C11.7535 9.49731 11.2735 9.78535 11.0334 10.2414C10.7934 10.6975 10.8254 11.2495 11.1134 11.6736C12.4496 13.6258 13.1537 15.9061 13.1537 18.2744V39.4131C13.1537 40.1812 13.7778 40.8053 14.5459 40.8053H17.6983V51.1027C17.6983 51.1027 17.6983 51.1186 17.6983 51.1266C17.6983 51.1986 17.6983 51.2627 17.7143 51.3347C17.7143 51.3427 17.7143 51.3506 17.7143 51.3586C17.7303 51.4307 17.7463 51.5027 17.7703 51.5667C17.7703 51.5827 17.7863 51.5987 17.7863 51.6147C17.8103 51.6787 17.8423 51.7427 17.8823 51.8067C17.8823 51.8067 17.8823 51.8147 17.8903 51.8227C17.9143 51.8627 17.9383 51.9027 17.9703 51.9428C17.9863 51.9588 17.9943 51.9748 18.0103 51.9908C18.0183 52.0068 18.0343 52.0148 18.0423 52.0308C18.0903 52.0868 18.1383 52.1348 18.1944 52.1748C18.1944 52.1748 18.2104 52.1828 18.2184 52.1908C18.2664 52.2308 18.3224 52.2628 18.3784 52.2948C18.3944 52.3028 18.4104 52.3108 18.4264 52.3188C18.4904 52.3508 18.5544 52.3828 18.6184 52.4068C18.6344 52.4068 18.6504 52.4148 18.6584 52.4228C18.7224 52.4388 18.7864 52.4548 18.8584 52.4708C18.8584 52.4708 18.8744 52.4708 18.8824 52.4708C18.8824 52.4708 18.8824 52.4708 18.8904 52.4708C18.9465 52.4708 19.0025 52.4788 19.0665 52.4788H46.566C47.1981 52.4788 47.7502 52.0548 47.9102 51.4467L54.247 27.7957C54.359 27.3796 54.271 26.9315 54.007 26.5875L54.039 26.6035ZM14.6499 12.2817H34.3644C35.4526 14.0899 36.0207 16.1461 36.0207 18.2744V30.9401H24.1471C23.515 30.9401 22.971 31.3641 22.8029 31.9722L21.1787 38.0209H15.9461V18.2744C15.9461 16.1861 15.498 14.1539 14.6499 12.2817ZM45.5339 49.7104H20.9227L23.339 40.8053C23.363 40.7093 23.379 40.6133 23.387 40.5173L25.2113 33.7244H37.6129C38.0689 33.7244 38.493 33.5004 38.749 33.1323L41.7734 28.8358H51.1266L45.5339 49.7104Z" fill="white"/>
<path id="Vector_3" d="M32.7082 18.4263H19.4345V20.6505H32.7082V18.4263Z" fill="white"/>
<path id="Vector_4" d="M32.7082 24.2351H19.4345V26.4594H32.7082V24.2351Z" fill="white"/>
</g>
</g>
</svg>
