<svg width="50" height="50" viewBox="0 0 62 62" fill="none" xmlns="http://www.w3.org/2000/svg">
<g id="Group">
<path id="Vector" opacity="0.4" d="M51.4946 0H10.5054C4.70341 0 0 4.70341 0 10.5054V51.4946C0 57.2966 4.70341 62 10.5054 62H51.4946C57.2966 62 62 57.2966 62 51.4946V10.5054C62 4.70341 57.2966 0 51.4946 0Z" fill="white"/>
<path id="Vector_2" d="M51.2867 31.0919L32.0282 10.0572C31.7641 9.76915 31.3961 9.60913 31.004 9.60913C30.612 9.60913 30.2439 9.76915 29.9799 10.0572L10.7214 31.0919C10.3454 31.5 10.2494 32.084 10.4734 32.5881C10.6974 33.0922 11.1935 33.4202 11.7456 33.4202H16.6662V51.0065C16.6662 51.7746 17.2903 52.3987 18.0584 52.3987H43.9577C44.7258 52.3987 45.3499 51.7746 45.3499 51.0065V33.4202H50.2705C50.8226 33.4202 51.3187 33.0922 51.5427 32.5881C51.7667 32.084 51.6707 31.492 51.2947 31.0919H51.2867ZM35.2046 49.6143H26.7955V36.4206H35.2046V49.6143ZM43.9497 30.6358C43.1816 30.6358 42.5575 31.2599 42.5575 32.028V49.6143H37.4289V34.1963H24.5712V49.6143H19.4426V32.028C19.4426 31.2599 18.8185 30.6358 18.0504 30.6358H14.898L30.996 13.0496L47.0941 30.6358H43.9417H43.9497Z" fill="white"/>
</g>
</svg>
