<svg width="86" height="120" viewBox="0 0 86 120" fill="none" xmlns="http://www.w3.org/2000/svg">
<g id="Group">
<path id="Vector" d="M43 79.2876C57.4544 79.2876 69.2087 67.526 69.2087 53.0715V26.3272C69.2087 11.8727 57.4471 0.118408 43 0.118408C28.5529 0.118408 16.7912 11.8801 16.7912 26.3272V53.0715C16.7912 67.526 28.5529 79.2876 43 79.2876ZM23.9377 51.9343V43.5478H62.0696V51.9343H23.9377ZM43 72.1411C34.0632 72.1411 26.5498 65.9631 24.4954 57.65H61.5119C59.4575 65.9631 51.9441 72.1411 43.0073 72.1411H43ZM43 7.26492C53.5143 7.26492 62.0622 15.8202 62.0622 26.3272V37.8247H23.9304V26.3272C23.9304 15.8128 32.4857 7.26492 42.9927 7.26492H43Z" fill="#0092FB"/>
<path id="Vector_2" d="M85.4902 51.7507C85.4902 49.777 83.8907 48.1775 81.9169 48.1775C79.9432 48.1775 78.3437 49.777 78.3437 51.7507C78.3437 71.2386 62.4878 87.0944 43 87.0944C23.5122 87.0944 7.65634 71.2386 7.65634 51.7507C7.65634 49.777 6.05682 48.1775 4.08309 48.1775C2.10936 48.1775 0.509827 49.777 0.509827 51.7507C0.509827 73.9754 17.6644 92.2599 39.4268 94.0795V111.946H20.3645C18.3908 111.946 16.7912 113.545 16.7912 115.519C16.7912 117.493 18.3908 119.092 20.3645 119.092H65.6428C67.6166 119.092 69.2161 117.493 69.2161 115.519C69.2161 113.545 67.6166 111.946 65.6428 111.946H46.5806V94.0795C68.343 92.2599 85.4975 73.9754 85.4975 51.7507H85.4902Z" fill="#0092FB"/>
<path id="Vector_3" d="M52.6118 33.1949C55.8861 33.1949 58.5404 30.5406 58.5404 27.2664C58.5404 23.9922 55.8861 21.3379 52.6118 21.3379C49.3376 21.3379 46.6833 23.9922 46.6833 27.2664C46.6833 30.5406 49.3376 33.1949 52.6118 33.1949Z" fill="#0092FB"/>
</g>
</svg>
