<svg width="50" height="50" viewBox="0 0 62 62" fill="none" xmlns="http://www.w3.org/2000/svg">
<g id="Group">
<path id="Vector" opacity="0.4" d="M51.4946 0H10.5054C4.70341 0 0 4.70341 0 10.5054V51.4946C0 57.2966 4.70341 62 10.5054 62H51.4946C57.2966 62 62 57.2966 62 51.4946V10.5054C62 4.70341 57.2966 0 51.4946 0Z" fill="white"/>
<g id="Group_2">
<path id="Vector_2" d="M30.996 38.653C36.6207 38.653 41.1973 34.0764 41.1973 28.4517V18.0424C41.1973 12.4177 36.6207 7.84106 30.996 7.84106C25.3713 7.84106 20.7947 12.4177 20.7947 18.0424V28.4517C20.7947 34.0764 25.3713 38.653 30.996 38.653ZM23.579 28.0116V24.7472H38.413V28.0116H23.579ZM30.996 35.8766C27.5156 35.8766 24.5952 33.4683 23.7951 30.2359H38.1969C37.3968 33.4683 34.4765 35.8766 30.996 35.8766ZM30.996 10.6334C35.0845 10.6334 38.413 13.9618 38.413 18.0503V22.5229H23.579V18.0503C23.579 13.9618 26.9075 10.6334 30.996 10.6334Z" fill="white"/>
<path id="Vector_3" d="M47.5341 27.9476C47.5341 27.1795 46.9101 26.5554 46.142 26.5554C45.3739 26.5554 44.7498 27.1795 44.7498 27.9476C44.7498 35.5326 38.581 41.7014 30.996 41.7014C23.411 41.7014 17.2422 35.5326 17.2422 27.9476C17.2422 27.1795 16.6181 26.5554 15.85 26.5554C15.082 26.5554 14.4579 27.1795 14.4579 27.9476C14.4579 36.5968 21.1307 43.7096 29.6038 44.4217V51.3746H22.1869C21.4188 51.3746 20.7947 51.9987 20.7947 52.7668C20.7947 53.5349 21.4188 54.159 22.1869 54.159H39.8051C40.5732 54.159 41.1973 53.5349 41.1973 52.7668C41.1973 51.9987 40.5732 51.3746 39.8051 51.3746H32.3882V44.4217C40.8533 43.7096 47.5341 36.5968 47.5341 27.9476Z" fill="white"/>
<path id="Vector_4" d="M34.7405 20.7146C36.0131 20.7146 37.0448 19.6829 37.0448 18.4103C37.0448 17.1376 36.0131 16.106 34.7405 16.106C33.4679 16.106 32.4362 17.1376 32.4362 18.4103C32.4362 19.6829 33.4679 20.7146 34.7405 20.7146Z" fill="white"/>
</g>
</g>
</svg>
