<svg width="72" height="72" viewBox="0 0 72 72" fill="none" xmlns="http://www.w3.org/2000/svg">
<g id="Group">
<path id="Vector" d="M60.0397 2H11.9603C6.45938 2 2 6.45937 2 11.9603V60.0397C2 65.5406 6.45938 70 11.9603 70H60.0397C65.5406 70 70 65.5406 70 60.0397V11.9603C70 6.45937 65.5406 2 60.0397 2Z" fill="#354A97" stroke="#146AB5" stroke-width="3" stroke-miterlimit="10"/>
<path id="Vector_2" d="M31.143 23.0532H26.2858C24.5009 23.0532 23.0477 24.5006 23.0477 26.2913V45.7085C23.0477 47.4934 24.4951 48.9465 26.2858 48.9465H31.143C32.9279 48.9465 34.3811 47.4991 34.3811 45.7085V26.2913C34.3811 24.5064 32.9336 23.0532 31.143 23.0532ZM45.7087 23.0532H40.8515C39.0666 23.0532 37.6134 24.5006 37.6134 26.2913V45.7085C37.6134 47.4934 39.0609 48.9465 40.8515 48.9465H45.7087C47.4936 48.9465 48.9468 47.4991 48.9468 45.7085V26.2913C48.9468 24.5064 47.4994 23.0532 45.7087 23.0532Z" fill="#00FFFF"/>
</g>
</svg>
