<svg width="72" height="72" viewBox="0 0 72 72" fill="none" xmlns="http://www.w3.org/2000/svg">
<g id="Group">
<path id="Vector" d="M60.0397 2H11.9603C6.45937 2 2 6.45937 2 11.9603V60.0397C2 65.5406 6.45937 70 11.9603 70H60.0397C65.5406 70 70 65.5406 70 60.0397V11.9603C70 6.45937 65.5406 2 60.0397 2Z" fill="#354A97" stroke="#146AB5" stroke-width="3" stroke-miterlimit="10"/>
<path id="Vector_2" d="M28.5798 23.0532C27.9906 23.0532 27.3956 23.2134 26.8807 23.5338C25.9253 24.123 25.3475 25.1642 25.3475 26.2856V45.7027C25.3475 46.824 25.931 47.8652 26.8807 48.4545C27.4013 48.7749 27.9906 48.9351 28.5798 48.9351C29.0718 48.9351 29.5696 48.8207 30.0273 48.5918L49.4444 38.8832C50.5428 38.334 51.2351 37.2127 51.2351 35.9884C51.2351 34.7641 50.5428 33.6428 49.4444 33.0936L30.0273 23.385C29.5696 23.1562 29.0718 23.0417 28.5798 23.0417V23.0532Z" fill="#00FFFF"/>
</g>
</svg>
