<svg width="72" height="72" viewBox="0 0 72 72" fill="none" xmlns="http://www.w3.org/2000/svg">
<g id="Group">
<path id="Vector" d="M60.0397 2H11.9603C6.45938 2 2 6.45937 2 11.9603V60.0397C2 65.5406 6.45938 70 11.9603 70H60.0397C65.5406 70 70 65.5406 70 60.0397V11.9603C70 6.45937 65.5406 2 60.0397 2Z" fill="#354A97" stroke="#146AB5" stroke-width="3" stroke-miterlimit="10"/>
<path id="Vector_2" d="M36 20.187C31.7779 20.187 27.8075 21.8289 24.8211 24.8153C21.8348 27.8017 20.1928 31.7721 20.1928 35.9942C20.1928 40.2163 21.8348 44.1867 24.8211 47.173C27.8075 50.1594 31.7779 51.8013 36 51.8013C40.2221 51.8013 44.1925 50.1594 47.1789 47.173C50.1652 44.1867 51.8129 40.2163 51.8129 35.9942C51.8129 31.7721 50.1652 27.8017 47.1789 24.8153C44.1925 21.8289 40.2221 20.187 36 20.187Z" fill="#00FFFF"/>
</g>
</svg>
