<svg width="72" height="72" viewBox="0 0 72 72" fill="none" xmlns="http://www.w3.org/2000/svg">
<g id="Group">
<path id="Vector" d="M60.0397 2H11.9603C6.45937 2 2 6.45937 2 11.9603V60.0397C2 65.5406 6.45937 70 11.9603 70H60.0397C65.5406 70 70 65.5406 70 60.0397V11.9603C70 6.45937 65.5406 2 60.0397 2Z" fill="#354A97" stroke="#146AB5" stroke-width="3" stroke-miterlimit="10"/>
<path id="Vector_2" d="M45.7086 23.0532H26.2915C24.5065 23.0532 23.0534 24.5006 23.0534 26.2913V45.7085C23.0534 47.4934 24.5008 48.9465 26.2915 48.9465H45.7086C47.4935 48.9465 48.9467 47.4991 48.9467 45.7085V26.2913C48.9467 24.5064 47.4993 23.0532 45.7086 23.0532Z" fill="#00FFFF"/>
</g>
</svg>
